#usda 1.0
(
    defaultPrim = "Card"
    doc = "Playing card: James A. Garfield (front) / 7 of Hearts (back)"
    metersPerUnit = 1
    upAxis = "Y"
    kilogramsPerUnit = 1
)

def Xform "Card" (
    kind = "component"
    assetInfo = {
        string name = "20 - James A. Garfield"
        string playingCard = "7 of Hearts"
        string emojiBack = "🂷"
        string presidentNumber = "20"
    }
)
{
    def Material "Face"
    {
        token outputs:surface.connect = <PreviewSurface.outputs:surface>

        def Shader "PreviewSurface"
        {
            uniform token info:id = "UsdPreviewSurface"
            color3f inputs:diffuseColor.connect = <../DiffuseTex.outputs:rgb>
            float inputs:opacity.connect = <../DiffuseTex.outputs:a>
            float inputs:roughness = 0.4
            float inputs:metallic = 0
            token outputs:surface
        }

        def Shader "DiffuseTex"
        {
            uniform token info:id = "UsdUVTexture"
            asset inputs:file = @/Users/alexanderfox/Desktop/Presidents/playing_cards_usd/textures/faces/20_James_A_Garfield.png@
            token inputs:sourceColorSpace = "sRGB"
            float2 inputs:st.connect = <../StReader.outputs:result>
            float3 outputs:rgb
            float outputs:a
        }

        def Shader "StReader"
        {
            uniform token info:id = "UsdPrimvarReader_float2"
            string inputs:varname = "st"
            float2 outputs:result
        }
    }
    def Material "CardBack"
    {
        token outputs:surface.connect = <PreviewSurface.outputs:surface>

        def Shader "PreviewSurface"
        {
            uniform token info:id = "UsdPreviewSurface"
            color3f inputs:diffuseColor.connect = <../DiffuseTex.outputs:rgb>
            float inputs:opacity.connect = <../DiffuseTex.outputs:a>
            float inputs:roughness = 0.4
            float inputs:metallic = 0
            token outputs:surface
        }

        def Shader "DiffuseTex"
        {
            uniform token info:id = "UsdUVTexture"
            asset inputs:file = @/Users/alexanderfox/Desktop/Presidents/playing_cards_usd/textures/backs/20_James_A_Garfield.png@
            token inputs:sourceColorSpace = "sRGB"
            float2 inputs:st.connect = <../StReader.outputs:result>
            float3 outputs:rgb
            float outputs:a
        }

        def Shader "StReader"
        {
            uniform token info:id = "UsdPrimvarReader_float2"
            string inputs:varname = "st"
            float2 outputs:result
        }
    }
    def Material "Edge"
    {
        token outputs:surface.connect = <Shader.outputs:surface>
        def Shader "Shader"
        {
            uniform token info:id = "UsdPreviewSurface"
            color3f inputs:diffuseColor = (0.94, 0.91, 0.85)
            float inputs:roughness = 0.5
            token outputs:surface
        }
    }

    def Xform "Geometry"
    {
        def Mesh "Front" (
            prepend apiSchemas = ["MaterialBindingAPI"]
        )
        {
            uniform bool doubleSided = 1
            float3[] extent = [(-0.031750, -0.044450, 0.000250), (0.031750, 0.044450, 0.000250)]
            int[] faceVertexCounts = [3, 3, 3, 3, 3, 3, 3, 3, 3, 3, 3, 3, 3, 3, 3, 3, 3, 3, 3, 3, 3, 3, 3, 3]
            int[] faceVertexIndices = [0, 1, 2, 0, 2, 3, 0, 3, 4, 0, 4, 5, 0, 5, 6, 0, 6, 7, 0, 7, 8, 0, 8, 9, 0, 9, 10, 0, 10, 11, 0, 11, 12, 0, 12, 13, 0, 13, 14, 0, 14, 15, 0, 15, 16, 0, 16, 17, 0, 17, 18, 0, 18, 19, 0, 19, 20, 0, 20, 21, 0, 21, 22, 0, 22, 23, 0, 23, 24, 0, 24, 1]
            point3f[] points = [(0.000000, 0.000000, 0.000250), (-0.031750, -0.041250, 0.000250), (-0.031641, -0.042078, 0.000250), (-0.031321, -0.042850, 0.000250), (-0.030813, -0.043513, 0.000250), (-0.030150, -0.044021, 0.000250), (-0.029378, -0.044341, 0.000250), (0.028550, -0.044450, 0.000250), (0.029378, -0.044341, 0.000250), (0.030150, -0.044021, 0.000250), (0.030813, -0.043513, 0.000250), (0.031321, -0.042850, 0.000250), (0.031641, -0.042078, 0.000250), (0.031750, 0.041250, 0.000250), (0.031641, 0.042078, 0.000250), (0.031321, 0.042850, 0.000250), (0.030813, 0.043513, 0.000250), (0.030150, 0.044021, 0.000250), (0.029378, 0.044341, 0.000250), (-0.028550, 0.044450, 0.000250), (-0.029378, 0.044341, 0.000250), (-0.030150, 0.044021, 0.000250), (-0.030813, 0.043513, 0.000250), (-0.031321, 0.042850, 0.000250), (-0.031641, 0.042078, 0.000250)]
            normal3f[] normals = [(0.000000, 0.000000, 1.000000), (0.000000, 0.000000, 1.000000), (0.000000, 0.000000, 1.000000), (0.000000, 0.000000, 1.000000), (0.000000, 0.000000, 1.000000), (0.000000, 0.000000, 1.000000), (0.000000, 0.000000, 1.000000), (0.000000, 0.000000, 1.000000), (0.000000, 0.000000, 1.000000), (0.000000, 0.000000, 1.000000), (0.000000, 0.000000, 1.000000), (0.000000, 0.000000, 1.000000), (0.000000, 0.000000, 1.000000), (0.000000, 0.000000, 1.000000), (0.000000, 0.000000, 1.000000), (0.000000, 0.000000, 1.000000), (0.000000, 0.000000, 1.000000), (0.000000, 0.000000, 1.000000), (0.000000, 0.000000, 1.000000), (0.000000, 0.000000, 1.000000), (0.000000, 0.000000, 1.000000), (0.000000, 0.000000, 1.000000), (0.000000, 0.000000, 1.000000), (0.000000, 0.000000, 1.000000), (0.000000, 0.000000, 1.000000)] (
                interpolation = "vertex"
            )
            texCoord2f[] primvars:st = [(0.500000, 0.500000), (0.000000, 0.964004), (0.001717, 0.973321), (0.006751, 0.982002), (0.014760, 0.989457), (0.025197, 0.995178), (0.037351, 0.998773), (0.949606, 1.000000), (0.962649, 0.998773), (0.974803, 0.995178), (0.985240, 0.989457), (0.993249, 0.982002), (0.998283, 0.973321), (1.000000, 0.035996), (0.998283, 0.026679), (0.993249, 0.017998), (0.985240, 0.010543), (0.974803, 0.004822), (0.962649, 0.001227), (0.050394, 0.000000), (0.037351, 0.001227), (0.025197, 0.004822), (0.014760, 0.010543), (0.006751, 0.017998), (0.001717, 0.026679)] (
                interpolation = "vertex"
            )
            uniform token subdivisionScheme = "none"
            rel material:binding = <../../Face>
        }

        def Mesh "Back" (
            prepend apiSchemas = ["MaterialBindingAPI"]
        )
        {
            uniform bool doubleSided = 1
            float3[] extent = [(-0.031750, -0.044450, -0.000250), (0.031750, 0.044450, -0.000250)]
            int[] faceVertexCounts = [3, 3, 3, 3, 3, 3, 3, 3, 3, 3, 3, 3, 3, 3, 3, 3, 3, 3, 3, 3, 3, 3, 3, 3]
            int[] faceVertexIndices = [0, 24, 23, 0, 23, 22, 0, 22, 21, 0, 21, 20, 0, 20, 19, 0, 19, 18, 0, 18, 17, 0, 17, 16, 0, 16, 15, 0, 15, 14, 0, 14, 13, 0, 13, 12, 0, 12, 11, 0, 11, 10, 0, 10, 9, 0, 9, 8, 0, 8, 7, 0, 7, 6, 0, 6, 5, 0, 5, 4, 0, 4, 3, 0, 3, 2, 0, 2, 1, 0, 1, 24]
            point3f[] points = [(0.000000, 0.000000, -0.000250), (-0.031750, -0.041250, -0.000250), (-0.031641, -0.042078, -0.000250), (-0.031321, -0.042850, -0.000250), (-0.030813, -0.043513, -0.000250), (-0.030150, -0.044021, -0.000250), (-0.029378, -0.044341, -0.000250), (0.028550, -0.044450, -0.000250), (0.029378, -0.044341, -0.000250), (0.030150, -0.044021, -0.000250), (0.030813, -0.043513, -0.000250), (0.031321, -0.042850, -0.000250), (0.031641, -0.042078, -0.000250), (0.031750, 0.041250, -0.000250), (0.031641, 0.042078, -0.000250), (0.031321, 0.042850, -0.000250), (0.030813, 0.043513, -0.000250), (0.030150, 0.044021, -0.000250), (0.029378, 0.044341, -0.000250), (-0.028550, 0.044450, -0.000250), (-0.029378, 0.044341, -0.000250), (-0.030150, 0.044021, -0.000250), (-0.030813, 0.043513, -0.000250), (-0.031321, 0.042850, -0.000250), (-0.031641, 0.042078, -0.000250)]
            normal3f[] normals = [(0.000000, 0.000000, -1.000000), (0.000000, 0.000000, -1.000000), (0.000000, 0.000000, -1.000000), (0.000000, 0.000000, -1.000000), (0.000000, 0.000000, -1.000000), (0.000000, 0.000000, -1.000000), (0.000000, 0.000000, -1.000000), (0.000000, 0.000000, -1.000000), (0.000000, 0.000000, -1.000000), (0.000000, 0.000000, -1.000000), (0.000000, 0.000000, -1.000000), (0.000000, 0.000000, -1.000000), (0.000000, 0.000000, -1.000000), (0.000000, 0.000000, -1.000000), (0.000000, 0.000000, -1.000000), (0.000000, 0.000000, -1.000000), (0.000000, 0.000000, -1.000000), (0.000000, 0.000000, -1.000000), (0.000000, 0.000000, -1.000000), (0.000000, 0.000000, -1.000000), (0.000000, 0.000000, -1.000000), (0.000000, 0.000000, -1.000000), (0.000000, 0.000000, -1.000000), (0.000000, 0.000000, -1.000000), (0.000000, 0.000000, -1.000000)] (
                interpolation = "vertex"
            )
            texCoord2f[] primvars:st = [(0.500000, 0.500000), (0.000000, 0.964004), (0.001717, 0.973321), (0.006751, 0.982002), (0.014760, 0.989457), (0.025197, 0.995178), (0.037351, 0.998773), (0.949606, 1.000000), (0.962649, 0.998773), (0.974803, 0.995178), (0.985240, 0.989457), (0.993249, 0.982002), (0.998283, 0.973321), (1.000000, 0.035996), (0.998283, 0.026679), (0.993249, 0.017998), (0.985240, 0.010543), (0.974803, 0.004822), (0.962649, 0.001227), (0.050394, 0.000000), (0.037351, 0.001227), (0.025197, 0.004822), (0.014760, 0.010543), (0.006751, 0.017998), (0.001717, 0.026679)] (
                interpolation = "vertex"
            )
            uniform token subdivisionScheme = "none"
            rel material:binding = <../../CardBack>
        }

        def Mesh "Edges" (
            prepend apiSchemas = ["MaterialBindingAPI"]
        )
        {
            float3[] extent = [(-0.031750, -0.044450, -0.000250), (0.031750, 0.044450, 0.000250)]
            int[] faceVertexCounts = [4, 4, 4, 4, 4, 4, 4, 4, 4, 4, 4, 4, 4, 4, 4, 4, 4, 4, 4, 4, 4, 4, 4, 4]
            int[] faceVertexIndices = [0, 1, 25, 24, 1, 2, 26, 25, 2, 3, 27, 26, 3, 4, 28, 27, 4, 5, 29, 28, 5, 6, 30, 29, 6, 7, 31, 30, 7, 8, 32, 31, 8, 9, 33, 32, 9, 10, 34, 33, 10, 11, 35, 34, 11, 12, 36, 35, 12, 13, 37, 36, 13, 14, 38, 37, 14, 15, 39, 38, 15, 16, 40, 39, 16, 17, 41, 40, 17, 18, 42, 41, 18, 19, 43, 42, 19, 20, 44, 43, 20, 21, 45, 44, 21, 22, 46, 45, 22, 23, 47, 46, 23, 0, 24, 47]
            point3f[] points = [(-0.031750, -0.041250, 0.000250), (-0.031641, -0.042078, 0.000250), (-0.031321, -0.042850, 0.000250), (-0.030813, -0.043513, 0.000250), (-0.030150, -0.044021, 0.000250), (-0.029378, -0.044341, 0.000250), (0.028550, -0.044450, 0.000250), (0.029378, -0.044341, 0.000250), (0.030150, -0.044021, 0.000250), (0.030813, -0.043513, 0.000250), (0.031321, -0.042850, 0.000250), (0.031641, -0.042078, 0.000250), (0.031750, 0.041250, 0.000250), (0.031641, 0.042078, 0.000250), (0.031321, 0.042850, 0.000250), (0.030813, 0.043513, 0.000250), (0.030150, 0.044021, 0.000250), (0.029378, 0.044341, 0.000250), (-0.028550, 0.044450, 0.000250), (-0.029378, 0.044341, 0.000250), (-0.030150, 0.044021, 0.000250), (-0.030813, 0.043513, 0.000250), (-0.031321, 0.042850, 0.000250), (-0.031641, 0.042078, 0.000250), (-0.031750, -0.041250, -0.000250), (-0.031641, -0.042078, -0.000250), (-0.031321, -0.042850, -0.000250), (-0.030813, -0.043513, -0.000250), (-0.030150, -0.044021, -0.000250), (-0.029378, -0.044341, -0.000250), (0.028550, -0.044450, -0.000250), (0.029378, -0.044341, -0.000250), (0.030150, -0.044021, -0.000250), (0.030813, -0.043513, -0.000250), (0.031321, -0.042850, -0.000250), (0.031641, -0.042078, -0.000250), (0.031750, 0.041250, -0.000250), (0.031641, 0.042078, -0.000250), (0.031321, 0.042850, -0.000250), (0.030813, 0.043513, -0.000250), (0.030150, 0.044021, -0.000250), (0.029378, 0.044341, -0.000250), (-0.028550, 0.044450, -0.000250), (-0.029378, 0.044341, -0.000250), (-0.030150, 0.044021, -0.000250), (-0.030813, 0.043513, -0.000250), (-0.031321, 0.042850, -0.000250), (-0.031641, 0.042078, -0.000250)]
            normal3f[] normals = [(-0.991445, -0.130526, 0.000000), (-0.991445, -0.130526, 0.000000), (-0.991445, -0.130526, 0.000000), (-0.991445, -0.130526, 0.000000), (-0.923880, -0.382683, 0.000000), (-0.923880, -0.382683, 0.000000), (-0.923880, -0.382683, 0.000000), (-0.923880, -0.382683, 0.000000), (-0.793353, -0.608761, 0.000000), (-0.793353, -0.608761, 0.000000), (-0.793353, -0.608761, 0.000000), (-0.793353, -0.608761, 0.000000), (-0.608761, -0.793353, 0.000000), (-0.608761, -0.793353, 0.000000), (-0.608761, -0.793353, 0.000000), (-0.608761, -0.793353, 0.000000), (-0.382683, -0.923880, 0.000000), (-0.382683, -0.923880, 0.000000), (-0.382683, -0.923880, 0.000000), (-0.382683, -0.923880, 0.000000), (-0.001882, -0.999998, 0.000000), (-0.001882, -0.999998, 0.000000), (-0.001882, -0.999998, 0.000000), (-0.001882, -0.999998, 0.000000), (0.130526, -0.991445, 0.000000), (0.130526, -0.991445, 0.000000), (0.130526, -0.991445, 0.000000), (0.130526, -0.991445, 0.000000), (0.382683, -0.923880, 0.000000), (0.382683, -0.923880, 0.000000), (0.382683, -0.923880, 0.000000), (0.382683, -0.923880, 0.000000), (0.608761, -0.793353, 0.000000), (0.608761, -0.793353, 0.000000), (0.608761, -0.793353, 0.000000), (0.608761, -0.793353, 0.000000), (0.793353, -0.608761, 0.000000), (0.793353, -0.608761, 0.000000), (0.793353, -0.608761, 0.000000), (0.793353, -0.608761, 0.000000), (0.923880, -0.382683, 0.000000), (0.923880, -0.382683, 0.000000), (0.923880, -0.382683, 0.000000), (0.923880, -0.382683, 0.000000), (0.999999, -0.001309, 0.000000), (0.999999, -0.001309, 0.000000), (0.999999, -0.001309, 0.000000), (0.999999, -0.001309, 0.000000), (0.991445, 0.130526, 0.000000), (0.991445, 0.130526, 0.000000), (0.991445, 0.130526, 0.000000), (0.991445, 0.130526, 0.000000), (0.923880, 0.382683, 0.000000), (0.923880, 0.382683, 0.000000), (0.923880, 0.382683, 0.000000), (0.923880, 0.382683, 0.000000), (0.793353, 0.608761, 0.000000), (0.793353, 0.608761, 0.000000), (0.793353, 0.608761, 0.000000), (0.793353, 0.608761, 0.000000), (0.608761, 0.793353, 0.000000), (0.608761, 0.793353, 0.000000), (0.608761, 0.793353, 0.000000), (0.608761, 0.793353, 0.000000), (0.382683, 0.923880, 0.000000), (0.382683, 0.923880, 0.000000), (0.382683, 0.923880, 0.000000), (0.382683, 0.923880, 0.000000), (0.001882, 0.999998, 0.000000), (0.001882, 0.999998, 0.000000), (0.001882, 0.999998, 0.000000), (0.001882, 0.999998, 0.000000), (-0.130526, 0.991445, 0.000000), (-0.130526, 0.991445, 0.000000), (-0.130526, 0.991445, 0.000000), (-0.130526, 0.991445, 0.000000), (-0.382683, 0.923880, 0.000000), (-0.382683, 0.923880, 0.000000), (-0.382683, 0.923880, 0.000000), (-0.382683, 0.923880, 0.000000), (-0.608761, 0.793353, 0.000000), (-0.608761, 0.793353, 0.000000), (-0.608761, 0.793353, 0.000000), (-0.608761, 0.793353, 0.000000), (-0.793353, 0.608761, 0.000000), (-0.793353, 0.608761, 0.000000), (-0.793353, 0.608761, 0.000000), (-0.793353, 0.608761, 0.000000), (-0.923880, 0.382683, 0.000000), (-0.923880, 0.382683, 0.000000), (-0.923880, 0.382683, 0.000000), (-0.923880, 0.382683, 0.000000), (-0.999999, 0.001309, 0.000000), (-0.999999, 0.001309, 0.000000), (-0.999999, 0.001309, 0.000000), (-0.999999, 0.001309, 0.000000)] (
                interpolation = "vertex"
            )
            uniform token subdivisionScheme = "none"
            rel material:binding = <../../Edge>
        }
    }
}
